<svg version="1.2" xmlns="http://www.w3.org/2000/svg" viewBox="0 0 209 228" width="50" height="54"><style>.a{fill:#1dd0f8}.b{fill:#fd577b}.c{fill:#fea000}</style><path fill-rule="evenodd" class="a" d="m170 213.8l0.8 3-39.5 10.6-0.8-3c-5.4-19.9-17.9-36-34-46.2-2.6 2.7-6 4.2-9.6 4.2q-3.4 0-6.6-1.8c-4.3-2.4-6.6-6.9-6.6-11.4 0-2.3 0.5-4.6 1.7-6.6 2.5-4.3 6.9-6.6 11.5-6.6 2.2 0 4.5 0.5 6.6 1.7 4.2 2.5 6.6 6.9 6.6 11.5q0 1.8-0.5 3.6c16.7 10.5 29.8 26.8 36 47l27.4-7.4c-7.1-24-21.5-43.9-40.1-58-19.4-14.6-43.4-23-68.4-23-8.8 0-17.9 1.1-26.9 3.3 0 2.1-0.6 4.2-1.7 6.2-2.5 4.2-6.9 6.6-11.5 6.6-2.2 0-4.5-0.6-6.6-1.8-4.2-2.4-6.6-6.9-6.6-11.5 0-2.2 0.6-4.5 1.8-6.5 2.4-4.3 6.9-6.7 11.4-6.7 2.3 0 4.6 0.6 6.6 1.8 2.4 1.4 4.2 3.4 5.3 5.7 9.4-2.3 18.9-3.4 28.2-3.4 26.4 0 51.7 8.8 72.2 24.3 20.5 15.5 36.1 37.7 43.3 64.4zm-148.6-79.5c0-2.4-1.3-4.8-3.5-6-1.1-0.7-2.3-1-3.5-1-2.4 0-4.7 1.3-6 3.5-0.6 1.1-0.9 2.3-0.9 3.4 0 2.5 1.2 4.8 3.5 6.1 1.1 0.6 2.2 0.9 3.4 0.9 2.4 0 4.7-1.3 6-3.5 0.7-1.1 1-2.3 1-3.4zm71.5 38.3c0.6-1.1 0.9-2.2 0.9-3.4 0-2.4-1.2-4.7-3.5-6-1.1-0.6-2.2-0.9-3.4-0.9-2.4 0-4.7 1.2-6 3.4-0.6 1.1-0.9 2.3-0.9 3.5 0 2.4 1.2 4.7 3.4 6 1.1 0.6 2.3 0.9 3.5 0.9 2.4 0 4.7-1.2 6-3.5z"/><path fill-rule="evenodd" class="b" d="m3.3 108.7l-3.1-0.8 10.6-39.5 3 0.8c6.9 1.8 13.7 2.7 20.5 2.7 12.9 0 25.4-3.2 36.5-9.1q-0.6-1.8-0.6-3.7c0-4.6 2.4-9 6.6-11.5 2.1-1.2 4.4-1.8 6.6-1.8 4.6 0 9 2.4 11.5 6.7 1.2 2 1.8 4.3 1.8 6.6 0 4.5-2.4 9-6.7 11.4-2 1.2-4.3 1.8-6.5 1.8-3.6 0-7-1.4-9.5-4-12.1 6.4-25.7 9.9-39.7 9.9-6.3 0-12.7-0.7-19-2.2l-7.4 27.4c8.8 2.1 17.7 3.1 26.4 3.1 25 0 48.9-8.3 68.3-23 18.8-14.2 33.3-34.3 40.3-58.5-1.7-1.1-3.3-2.7-4.4-4.6-1.2-2.1-1.8-4.4-1.8-6.6 0-4.6 2.4-9 6.6-11.5 2.1-1.2 4.4-1.7 6.6-1.7 4.6 0 9 2.3 11.5 6.6 1.2 2 1.7 4.3 1.7 6.6 0 4.5-2.3 9-6.6 11.4q-3.2 1.8-6.6 1.8-0.5 0-1-0.1c-7.5 25.5-22.7 46.7-42.5 61.6-20.4 15.5-45.7 24.3-72.1 24.3-10.3 0-20.7-1.3-31-4.1zm139.7-94.9c0 1.2 0.3 2.3 0.9 3.4 1.3 2.3 3.6 3.5 6 3.5 1.2 0 2.4-0.3 3.5-0.9 2.2-1.3 3.4-3.6 3.4-6 0-1.2-0.3-2.4-0.9-3.5-1.3-2.2-3.6-3.4-6-3.4-1.2 0-2.4 0.3-3.5 0.9-2.2 1.3-3.4 3.6-3.4 6zm-66.5 45.3c0 1.2 0.3 2.3 0.9 3.4 1.3 2.3 3.6 3.5 6.1 3.5 1.1 0 2.3-0.3 3.4-0.9 2.2-1.3 3.5-3.6 3.5-6 0-1.2-0.3-2.4-1-3.5-1.2-2.2-3.6-3.5-6-3.5-1.1 0-2.3 0.3-3.4 1-2.2 1.2-3.5 3.6-3.5 6z"/><path fill-rule="evenodd" class="c" d="m206.6 45.8c-14.6 14.6-22.3 33.4-23 52.5 5.8 1.4 10.1 6.6 10.1 12.8 0 7.3-5.9 13.3-13.2 13.3-7.3 0-13.2-6-13.2-13.3 0-6.1 4.3-11.3 10-12.8 0.7-19.7 8.3-39.2 22.6-54.7l-20-20c-20.7 21.8-31 49.8-31 77.8 0 28.2 10.4 56.4 31.4 78.3 1.8-1 3.9-1.6 6.2-1.6 7.3 0 13.2 6 13.2 13.2 0 7.3-5.9 13.3-13.2 13.3-7.3 0-13.2-6-13.2-13.3 0-2.7 0.8-5.3 2.3-7.4-22-23.1-33-52.8-33-82.5 0-30.6 11.7-61.2 35-84.5l2.2-2.3 29 29zm-20.1 138.6c-1.9 0-3.6 0.8-4.9 2-1.2 1.3-2 3-2 4.9 0 1.9 0.8 3.7 2 4.9 1.3 1.3 3 2.1 4.9 2.1 2 0 3.7-0.8 4.9-2.1 1.3-1.2 2.1-3 2.1-4.9 0-1.9-0.8-3.6-2.1-4.9-1.2-1.2-2.9-2-4.9-2zm-1.1-78.2c-1.2-1.2-2.9-2-4.8-2-2 0-3.7 0.8-4.9 2-1.3 1.3-2.1 3-2.1 4.9 0 1.9 0.8 3.7 2.1 4.9 1.2 1.3 2.9 2 4.9 2 1.9 0 3.6-0.7 4.8-2 1.3-1.2 2.1-3 2.1-4.9 0-1.9-0.8-3.6-2.1-4.9z"/></svg>